<svg xmlns="http://www.w3.org/2000/svg" width="48.458" height="36.344" viewBox="0 0 48.458 36.344">
  <path id="email" d="M43.915,59.882H4.543A4.548,4.548,0,0,0,0,64.425V91.683a4.548,4.548,0,0,0,4.543,4.543H43.915a4.548,4.548,0,0,0,4.543-4.543V64.425a4.548,4.548,0,0,0-4.543-4.543Zm0,3.029a1.506,1.506,0,0,1,.58.117L24.229,80.593,3.962,63.028a1.507,1.507,0,0,1,.58-.117Zm0,30.286H4.543a1.515,1.515,0,0,1-1.514-1.514V66.228L23.237,83.741a1.517,1.517,0,0,0,1.985,0L45.429,66.228V91.683A1.515,1.515,0,0,1,43.915,93.2Z" transform="translate(0 -59.882)" fill="#ccac8d"/>
</svg>
