<svg id="instagram_1_" data-name="instagram (1)" xmlns="http://www.w3.org/2000/svg" width="48.634" height="48.634" viewBox="0 0 48.634 48.634">
  <path id="Path_20" data-name="Path 20" d="M35.469,0h-22.3A13.18,13.18,0,0,0,0,13.165v22.3A13.18,13.18,0,0,0,13.165,48.634h22.3A13.179,13.179,0,0,0,48.634,35.47v-22.3A13.18,13.18,0,0,0,35.469,0ZM45.783,35.47A10.325,10.325,0,0,1,35.469,45.783h-22.3A10.325,10.325,0,0,1,2.851,35.47v-22.3A10.325,10.325,0,0,1,13.165,2.851h22.3A10.325,10.325,0,0,1,45.783,13.165Zm0,0" fill="#ccac8d"/>
  <path id="Path_21" data-name="Path 21" d="M129.3,116a13.3,13.3,0,1,0,13.3,13.3A13.313,13.313,0,0,0,129.3,116Zm0,23.745A10.447,10.447,0,1,1,139.749,129.3,10.459,10.459,0,0,1,129.3,139.749Zm0,0" transform="translate(-104.985 -104.985)" fill="#ccac8d"/>
  <path id="Path_22" data-name="Path 22" d="M361.906,66.285a3.93,3.93,0,1,0,3.93,3.929A3.934,3.934,0,0,0,361.906,66.285Zm0,5.008a1.078,1.078,0,1,1,1.079-1.078A1.08,1.08,0,0,1,361.906,71.293Zm0,0" transform="translate(-323.973 -59.989)" fill="#ccac8d"/>
</svg>
