<svg xmlns="http://www.w3.org/2000/svg" width="44.196" height="44.18" viewBox="0 0 44.196 44.18">
  <g id="linkedin_1_" data-name="linkedin (1)" transform="translate(1.2 1.048)">
    <g id="Group_2" data-name="Group 2" transform="translate(0 13.197)">
      <g id="Group_1" data-name="Group 1">
        <rect id="Rectangle_17" data-name="Rectangle 17" width="9.347" height="28.734" fill="none" stroke="#ccac8d" stroke-linecap="round" stroke-linejoin="bevel" stroke-width="2.4"/>
      </g>
    </g>
    <g id="Group_4" data-name="Group 4" transform="translate(13.061 13.197)">
      <g id="Group_3" data-name="Group 3">
        <path id="Path_18" data-name="Path 18" d="M181.744,160.337c-.1-.031-.193-.065-.3-.094-.125-.029-.251-.052-.379-.073a8.376,8.376,0,0,0-1.677-.17c-5.449,0-8.905,3.963-10.044,5.493V160H160v28.734h9.347V173.061s7.063-9.838,10.044-2.612v18.285h9.344v-19.39A9.319,9.319,0,0,0,181.744,160.337Z" transform="translate(-160 -160)" fill="none" stroke="#ccac8d" stroke-linecap="round" stroke-linejoin="bevel" stroke-width="2.4"/>
      </g>
    </g>
    <g id="Group_6" data-name="Group 6" transform="translate(0 0)">
      <g id="Group_5" data-name="Group 5">
        <circle id="Ellipse_1" data-name="Ellipse 1" cx="4.5" cy="4.5" r="4.5" transform="translate(0 0.152)" stroke-width="2.4" stroke="#ccac8d" stroke-linecap="round" stroke-linejoin="bevel" fill="none"/>
      </g>
    </g>
  </g>
</svg>
