<svg xmlns="http://www.w3.org/2000/svg" width="53.087" height="44.196" viewBox="0 0 53.087 44.196">
  <g id="twitter" transform="translate(0.65 1.2)">
    <g id="Group_7" data-name="Group 7" transform="translate(0 0)">
      <path id="Path_19" data-name="Path 19" d="M51.441,52.948a21.987,21.987,0,0,1-6.076,1.665A10.487,10.487,0,0,0,50,48.784a21.075,21.075,0,0,1-6.687,2.553,10.545,10.545,0,0,0-18.242,7.211,10.859,10.859,0,0,0,.244,2.4A29.85,29.85,0,0,1,3.582,49.923,10.549,10.549,0,0,0,6.822,64.017a10.415,10.415,0,0,1-4.765-1.3v.116A10.594,10.594,0,0,0,10.507,73.2a10.526,10.526,0,0,1-2.765.347,9.324,9.324,0,0,1-2-.18A10.646,10.646,0,0,0,15.6,80.71a21.19,21.19,0,0,1-13.076,4.5A19.751,19.751,0,0,1,0,85.063,29.689,29.689,0,0,0,16.178,89.8c19.406,0,30.016-16.075,30.016-30.009,0-.466-.016-.916-.039-1.363A21.038,21.038,0,0,0,51.441,52.948Z" transform="translate(0 -48)" fill="none" stroke="#ccac8d" stroke-linecap="round" stroke-linejoin="bevel" stroke-width="2.4"/>
    </g>
  </g>
</svg>
